<?xml version="1.0" standalone="no"?>
<!DOCTYPE svg PUBLIC "-//W3C//DTD SVG 20010904//EN"
 "http://www.w3.org/TR/2001/REC-SVG-20010904/DTD/svg10.dtd">
<svg version="1.0" xmlns="http://www.w3.org/2000/svg"
 width="108.000000pt" height="108.000000pt" viewBox="0 0 108.000000 108.000000"
 preserveAspectRatio="xMidYMid meet">
<metadata>
Created by potrace 1.14, written by Peter Selinger 2001-2017
</metadata>
<g transform="translate(0.000000,108.000000) scale(0.100000,-0.100000)"
fill="#000000" stroke="none">
<path d="M509 1024 c-7 -8 -19 -12 -27 -9 -12 4 -12 3 -3 -9 9 -11 9 -16 0
-22 -8 -4 -9 -3 -5 4 4 7 3 12 -1 12 -5 0 -14 -9 -21 -20 -10 -17 -10 -21 3
-26 8 -3 12 -10 9 -15 -3 -5 -3 -9 0 -9 3 0 12 14 21 30 9 17 20 30 26 30 7 0
6 -6 -2 -17 -13 -16 -12 -17 3 -4 10 7 16 17 13 21 -6 10 14 25 21 17 3 -3 0
-15 -6 -27 -10 -18 -9 -21 1 -14 7 4 23 8 35 9 18 0 21 -3 13 -17 -14 -25 -11
-34 4 -13 10 13 16 15 21 6 6 -9 11 -9 23 1 15 12 15 11 2 -9 -11 -19 -11 -24
0 -35 12 -11 13 -10 7 7 -6 15 -4 17 5 8 12 -12 3 -37 -11 -28 -5 3 -11 -3
-13 -12 -4 -16 -5 -16 -6 -1 -1 11 -7 15 -21 11 -11 -3 -17 -9 -14 -14 3 -5 1
-9 -4 -9 -6 0 -13 7 -16 16 -3 8 -2 13 3 9 11 -6 8 22 -4 32 -4 4 -5 2 -1 -4
4 -7 2 -13 -4 -13 -7 0 -10 -7 -7 -15 10 -25 -14 -28 -31 -4 -9 13 -16 28 -14
32 1 4 -7 3 -18 -3 -17 -9 -20 -30 -4 -30 3 0 2 5 -2 11 -4 7 -1 10 7 7 8 -3
13 -14 11 -24 -2 -16 -1 -17 7 -4 7 9 11 10 11 3 0 -6 -8 -18 -19 -25 -10 -7
-19 -17 -20 -23 -2 -5 -5 -12 -8 -15 -4 -3 -3 1 1 8 4 7 2 12 -6 12 -7 1 -3 6
10 13 12 7 19 16 16 20 -4 4 -18 0 -32 -9 -13 -9 -21 -11 -18 -5 4 6 2 11 -5
11 -7 0 -9 3 -6 7 4 3 2 12 -5 20 -6 7 -8 16 -5 20 4 3 2 12 -4 20 -9 9 -8 13
0 13 6 0 12 -4 12 -10 1 -5 2 -15 3 -22 0 -6 8 -13 16 -15 10 -3 11 -2 4 4 -6
4 -10 16 -8 25 1 10 -2 21 -7 24 -6 4 -6 11 1 19 8 10 8 15 -1 21 -7 4 -9 3
-6 -2 9 -15 -52 -58 -86 -60 -18 -1 -34 -2 -37 -4 -3 -1 -8 -2 -12 -1 -5 0 -8
-4 -8 -9 0 -5 -3 -9 -7 -9 -5 1 -11 0 -15 -1 -22 -7 -34 -4 -40 10 -6 11 -7
10 -5 -5 2 -11 9 -19 15 -18 16 4 15 -5 -2 -23 -8 -8 -21 -13 -28 -12 -7 2
-12 -3 -10 -10 2 -10 -2 -10 -20 -1 -21 11 -22 11 -9 -4 12 -15 11 -17 -3 -17
-9 0 -16 -5 -16 -11 0 -5 5 -7 12 -3 7 4 8 3 4 -5 -6 -9 -11 -9 -22 0 -12 10
-15 10 -12 -2 2 -8 8 -17 13 -21 6 -5 3 -8 -7 -8 -9 0 -20 -5 -24 -12 -4 -7
-3 -8 4 -4 7 4 12 2 12 -3 0 -10 -13 -15 -32 -12 -7 0 -5 -19 3 -34 8 -13 4
-63 -4 -72 -10 -9 -9 -25 1 -19 5 3 9 -2 9 -10 0 -8 -6 -13 -12 -10 -6 2 -12
-2 -12 -9 0 -8 7 -11 16 -7 14 5 14 4 1 -13 -11 -14 -12 -17 -1 -11 9 6 12 5
9 -5 -3 -8 -11 -13 -18 -11 -10 2 -10 -1 -4 -10 12 -15 12 -28 1 -46 -10 -15
16 -27 34 -16 8 4 9 3 5 -4 -4 -7 -15 -12 -24 -13 -11 0 -13 -2 -4 -6 10 -4
10 -8 0 -20 -10 -12 -9 -14 4 -11 9 1 16 -1 15 -7 -1 -5 -6 -9 -11 -7 -5 2 -5
-5 -1 -15 4 -10 7 -27 6 -38 -5 -43 1 -75 11 -69 4 3 8 0 8 -5 0 -6 10 -11 23
-11 17 0 19 -2 7 -9 -8 -6 -18 -7 -23 -4 -5 3 -4 -4 2 -15 7 -14 7 -22 1 -25
-6 -3 -5 -4 2 -3 7 2 12 10 10 20 -2 9 4 16 12 16 16 0 13 -23 -7 -48 -6 -7
-6 -12 -1 -11 21 4 34 -2 34 -15 0 -9 7 -12 20 -9 12 3 20 0 20 -6 0 -7 5 -9
12 -5 7 4 8 3 4 -5 -6 -9 -11 -9 -22 0 -10 8 -14 8 -14 0 0 -6 3 -11 8 -12 4
0 17 -2 30 -5 16 -3 21 0 16 8 -5 10 -4 10 6 1 7 -6 19 -9 26 -6 8 3 14 1 14
-5 0 -5 12 -9 27 -8 18 1 28 -4 28 -14 0 -9 11 -15 30 -17 20 -1 25 1 16 6 -8
5 -19 7 -26 5 -6 -3 -12 2 -12 11 0 8 2 15 4 15 9 0 49 -26 58 -39 10 -11 14
-11 27 3 14 14 17 14 22 0 3 -8 2 -12 -4 -9 -6 3 -10 1 -10 -4 0 -15 13 -14
29 2 11 10 13 10 7 0 -4 -8 -2 -13 6 -14 7 0 21 -2 31 -4 9 -2 15 0 12 5 -3 4
2 11 11 14 8 3 12 2 9 -4 -3 -6 -1 -10 4 -10 6 0 11 5 11 10 0 6 5 10 11 10 5
0 7 -6 3 -13 -4 -6 4 -2 17 9 13 12 30 19 38 16 9 -3 11 0 6 8 -6 9 -3 9 15 0
12 -6 24 -9 28 -6 3 3 -1 6 -8 6 -16 0 -3 15 13 15 7 0 18 -6 25 -15 11 -13
11 -11 2 8 -6 12 -15 20 -21 17 -5 -4 -9 -1 -9 5 0 7 8 9 20 5 16 -5 19 -3 13
12 -6 16 -5 17 12 3 11 -9 16 -10 11 -2 -4 7 -2 12 4 12 6 0 8 5 5 11 -4 6 0
9 10 7 10 -2 20 3 23 11 3 9 0 11 -8 6 -9 -5 -11 -4 -6 3 5 9 13 9 28 1 15 -8
19 -8 14 0 -4 6 -2 11 4 11 6 0 8 5 4 13 -5 7 0 6 11 -3 17 -14 18 -13 11 4
-7 20 -7 20 16 0 l22 -19 -18 30 c-10 17 -13 25 -6 18 15 -14 42 -6 33 11 -4
7 -1 6 7 -1 11 -10 17 -9 32 4 10 9 18 24 18 34 0 13 5 17 18 12 14 -5 13 -3
-3 10 -18 15 -18 16 -2 17 20 0 21 4 7 31 -8 15 -7 21 5 25 8 3 12 10 9 15 -3
5 -10 6 -16 3 -6 -4 -5 3 2 16 10 18 8 25 -7 43 -14 17 -12 17 10 -3 25 -21
27 -22 21 -5 -4 11 -13 24 -21 28 -20 12 -16 26 12 39 19 9 22 14 14 25 -9 10
-8 17 2 30 12 14 9 13 -16 -2 l-30 -19 18 21 c11 12 16 26 13 32 -3 5 -3 11 1
14 5 2 3 2 -4 1 -21 -5 -40 40 -22 52 5 3 9 13 9 22 0 15 -2 15 -10 2 -6 -9
-10 -10 -10 -3 0 7 8 17 18 22 10 6 12 11 4 11 -7 0 -10 5 -6 12 5 7 3 8 -6 3
-10 -6 -12 -4 -7 7 4 12 0 15 -16 11 -22 -5 -22 -5 -2 10 11 9 15 17 8 17 -6
0 -16 12 -21 28 -6 15 -11 21 -11 14 -1 -7 4 -23 10 -35 l11 -22 -20 21 c-12
13 -19 32 -18 48 2 14 -1 23 -6 20 -5 -3 -7 -12 -4 -20 3 -8 1 -14 -4 -14 -6
0 -10 7 -10 15 0 8 -5 15 -11 15 -5 0 -7 4 -4 10 3 6 -1 7 -9 4 -9 -3 -13 -11
-9 -18 4 -6 -10 4 -30 22 -38 32 -64 43 -51 20 4 -7 -1 -5 -12 4 -14 14 -16
21 -6 30 8 8 12 9 12 1 0 -12 38 -29 53 -25 5 1 5 -3 1 -9 -4 -8 -3 -9 5 -5 6
4 9 12 5 17 -3 6 -8 8 -11 5 -9 -8 -44 14 -38 24 6 10 -21 7 -31 -3 -11 -11
-42 -8 -46 3 -2 6 -13 12 -26 15 -13 2 -20 0 -17 -6 4 -5 11 -6 17 -3 7 5 8 2
3 -6 -6 -10 -12 -8 -26 8 -19 24 -39 29 -39 10 0 -6 -3 -8 -6 -5 -4 4 -1 14 7
23 13 16 12 16 -8 6 -14 -8 -24 -9 -28 -2 -3 6 -19 17 -35 25 -25 13 -29 13
-41 -1z m21 2 c0 -2 -8 -10 -17 -17 -16 -13 -17 -12 -4 4 13 16 21 21 21 13z
m174 -84 c3 -5 -1 -9 -9 -9 -8 0 -12 4 -9 9 3 4 7 8 9 8 2 0 6 -4 9 -8z m-368
-24 c4 -7 3 -8 -5 -4 -6 4 -14 0 -17 -8 -3 -9 -10 -14 -14 -11 -5 3 -16 -2
-24 -11 -17 -17 -19 -15 -10 10 3 9 9 14 14 11 4 -2 16 2 26 10 23 18 21 17
30 3z m74 2 c0 -5 -4 -10 -10 -10 -5 0 -10 5 -10 10 0 6 5 10 10 10 6 0 10 -4
10 -10z m263 -40 c-10 -9 -20 -15 -23 -13 -3 3 3 10 12 17 10 7 14 17 10 21
-4 5 -1 5 6 1 11 -6 10 -12 -5 -26z m-299 3 c-5 -17 -5 -17 9 0 8 9 19 17 25
17 17 0 24 -18 11 -26 -8 -5 -9 -3 -4 6 5 8 4 11 -3 6 -6 -4 -9 -13 -5 -21 3
-8 0 -15 -7 -15 -6 0 -8 5 -4 12 5 8 2 9 -9 5 -18 -7 -32 7 -22 23 10 16 15
12 9 -7z m158 -30 c-6 -2 -10 -8 -8 -12 3 -4 -1 -8 -9 -8 -11 0 -12 4 -4 14 6
7 17 13 23 12 7 0 6 -2 -2 -6z m443 -111 c-3 -3 -11 0 -18 7 -9 10 -8 11 6 5
10 -3 15 -9 12 -12z m-855 -12 c0 -5 -5 -10 -11 -10 -5 0 -7 5 -4 10 3 6 8 10
11 10 2 0 4 -4 4 -10z m875 -110 c-3 -5 -11 -10 -16 -10 -6 0 -7 5 -4 10 3 6
11 10 16 10 6 0 7 -4 4 -10z m15 -60 c0 -5 -4 -10 -10 -10 -5 0 -10 5 -10 10
0 6 5 10 10 10 6 0 10 -4 10 -10z m-894 -45 c1 -8 -5 -20 -14 -27 -15 -11 -15
-11 -6 2 6 8 10 23 8 33 -1 11 0 16 4 13 3 -4 7 -13 8 -21z m14 -200 c0 -8 -2
-15 -4 -15 -2 0 -6 7 -10 15 -3 8 -1 15 4 15 6 0 10 -7 10 -15z m824 -14 c3
-5 -2 -15 -12 -22 -15 -12 -16 -12 -5 2 7 9 10 19 6 22 -3 4 -4 7 0 7 3 0 8
-4 11 -9z m-143 -38 c13 -16 12 -17 -3 -4 -10 7 -18 15 -18 17 0 8 8 3 21 -13z
m-582 -59 c11 4 10 1 -4 -9 -18 -14 -21 -14 -31 0 -6 8 -14 12 -18 8 -4 -4 -4
0 -1 10 6 15 9 15 22 1 9 -8 23 -13 32 -10z m317 -66 c3 -4 -1 -5 -10 -4 -8 1
-18 5 -22 8 -3 4 1 5 10 4 8 -1 18 -5 22 -8z"/>
<path d="M581 1023 c-1 -17 16 -25 25 -12 4 7 3 9 -4 5 -5 -3 -13 0 -15 6 -4
9 -6 10 -6 1z"/>
<path d="M716 977 c3 -10 9 -15 12 -12 3 3 0 11 -7 18 -10 9 -11 8 -5 -6z"/>
<path d="M380 961 c0 -7 -5 -9 -12 -5 -7 5 -8 3 -3 -5 5 -9 10 -10 18 -2 6 6
8 14 4 18 -4 3 -7 1 -7 -6z"/>
<path d="M604 943 c3 -6 2 -14 -4 -18 -17 -10 -11 -24 9 -22 16 1 18 4 8 16
-7 8 -10 16 -9 18 2 3 0 8 -4 11 -4 4 -4 2 0 -5z"/>
<path d="M533 919 c-2 -23 3 -25 10 -4 4 8 3 16 -1 19 -4 3 -9 -4 -9 -15z"/>
<path d="M196 913 c-6 -14 -5 -15 5 -6 7 7 10 15 7 18 -3 3 -9 -2 -12 -12z"/>
<path d="M855 920 c3 -5 -1 -10 -10 -10 -9 0 -13 -5 -10 -10 5 -8 11 -7 21 1
17 14 18 29 3 29 -5 0 -7 -4 -4 -10z"/>
<path d="M150 882 c0 -4 9 -8 20 -9 11 -1 20 2 20 5 0 4 -9 8 -20 9 -11 1 -20
-2 -20 -5z"/>
<path d="M205 880 c3 -5 8 -10 11 -10 2 0 4 5 4 10 0 6 -5 10 -11 10 -5 0 -7
-4 -4 -10z"/>
<path d="M450 879 c0 -5 5 -7 10 -4 6 3 10 8 10 11 0 2 -4 4 -10 4 -5 0 -10
-5 -10 -11z"/>
<path d="M989 682 c9 -7 10 -11 2 -15 -7 -4 -8 -5 0 -3 15 2 13 20 -3 24 -10
3 -10 2 1 -6z"/>
<path d="M1010 520 c0 -5 5 -10 11 -10 5 0 7 5 4 10 -3 6 -8 10 -11 10 -2 0
-4 -4 -4 -10z"/>
<path d="M1000 446 c0 -2 8 -10 18 -17 15 -13 16 -12 3 4 -13 16 -21 21 -21
13z"/>
<path d="M816 181 c-4 -5 3 -7 14 -4 23 6 26 13 6 13 -8 0 -17 -4 -20 -9z"/>
<path d="M290 115 c0 -8 4 -15 10 -15 5 0 7 7 4 15 -4 8 -8 15 -10 15 -2 0 -4
-7 -4 -15z"/>
<path d="M327 103 c3 -7 9 -10 14 -7 14 8 11 21 -5 21 -8 0 -12 -6 -9 -14z"/>
</g>
</svg>
